<svg version="1.1" id="Layer_1" xmlns="http://www.w3.org/2000/svg" x="0px" y="0px"
	 width="100%" viewBox="0 0 512 512" enable-background="new 0 0 512 512" xml:space="preserve">
<path fill="none" opacity="1.000000" stroke="none"
	d="
M302.000000,513.000000 
	C201.357773,513.000000 101.215538,513.000000 1.036655,513.000000 
	C1.036655,342.399414 1.036655,171.798813 1.036655,1.099110 
	C171.558914,1.099110 342.117889,1.099110 512.838440,1.099110 
	C512.838440,171.666550 512.838440,342.333252 512.838440,513.000000 
	C442.798798,513.000000 372.649384,513.000000 302.000000,513.000000 
M504.985870,176.090408 
	C504.990509,152.605774 504.650085,129.114227 505.119415,105.638878 
	C505.439728,89.618294 494.254761,76.908188 476.230804,76.939491 
	C396.283173,77.078346 316.335144,76.977417 236.387344,77.037338 
	C228.917099,77.042938 222.031097,75.008240 216.263947,70.630447 
	C205.453033,62.423973 195.100632,53.613586 184.554825,45.057713 
	C177.701401,39.497505 170.067368,35.150669 161.145142,35.103470 
	C118.007820,34.875233 74.868324,34.919945 31.730408,35.083122 
	C24.877838,35.109039 19.431396,38.685440 14.983644,43.957741 
	C10.254911,49.563110 8.965027,56.049271 8.982533,63.095158 
	C9.076876,101.065811 9.113972,139.036606 9.053610,177.937271 
	C9.035855,270.081848 8.924047,362.226624 9.094007,454.370850 
	C9.121953,469.521942 21.628448,479.076324 33.997849,479.067596 
	C182.129196,478.962921 330.260925,478.874237 478.391663,479.197815 
	C492.946228,479.229614 505.089874,467.657196 505.066711,452.445160 
	C504.930603,362.966614 505.001038,273.487823 504.992523,184.009109 
	C504.992310,181.679016 504.885406,179.348907 504.985870,176.090408 
z"/>
<path fill="#FFB90B" opacity="1.000000" stroke="none" 
	d="
M504.828247,177.018814 
	C504.885406,179.348907 504.992310,181.679016 504.992523,184.009109 
	C505.001038,273.487823 504.930603,362.966614 505.066711,452.445160 
	C505.089874,467.657196 492.946228,479.229614 478.391663,479.197815 
	C330.260925,478.874237 182.129196,478.962921 33.997849,479.067596 
	C21.628448,479.076324 9.121953,469.521942 9.094007,454.370850 
	C8.924047,362.226624 9.035855,270.081848 9.300171,177.169373 
	C11.951468,164.536758 22.192444,153.486557 37.967907,154.874100 
	C42.719997,155.292068 47.552322,154.797852 52.796272,154.693008 
	C67.907990,154.669373 82.571320,154.676758 97.234650,154.678635 
	C218.706558,154.694092 340.178467,154.708527 462.138733,154.771271 
	C468.114349,154.864670 473.611389,155.139206 479.086609,154.904236 
	C488.388947,154.505035 495.072052,158.960403 500.000702,166.193634 
	C502.190063,169.406723 503.253632,173.386856 504.828247,177.018814 
z"/>
<path fill="#E58B0A" opacity="1.000000" stroke="none" 
	d="
M52.347893,154.721497 
	C47.552322,154.797852 42.719997,155.292068 37.967907,154.874100 
	C22.192444,153.486557 11.951468,164.536758 9.358774,176.704407 
	C9.113972,139.036606 9.076876,101.065811 8.982533,63.095158 
	C8.965027,56.049271 10.254911,49.563110 14.983644,43.957741 
	C19.431396,38.685440 24.877838,35.109039 31.730408,35.083122 
	C74.868324,34.919945 118.007820,34.875233 161.145142,35.103470 
	C170.067368,35.150669 177.701401,39.497505 184.554825,45.057713 
	C195.100632,53.613586 205.453033,62.423973 216.263947,70.630447 
	C222.031097,75.008240 228.917099,77.042938 236.387344,77.037338 
	C316.335144,76.977417 396.283173,77.078346 476.230804,76.939491 
	C494.254761,76.908188 505.439728,89.618294 505.119415,105.638878 
	C504.650085,129.114227 504.990509,152.605774 504.907043,176.554611 
	C503.253632,173.386856 502.190063,169.406723 500.000702,166.193634 
	C495.072052,158.960403 488.388947,154.505035 479.086609,154.904236 
	C473.611389,155.139206 468.114349,154.864670 462.203491,154.329224 
	C461.813477,150.008118 461.625916,146.160095 461.918213,142.348877 
	C463.349701,123.684738 450.505066,111.663452 431.758270,111.735336 
	C315.289490,112.181931 198.818161,111.960091 82.347672,111.961296 
	C80.514885,111.961311 78.680504,111.931030 76.849579,111.993988 
	C65.092995,112.398270 54.752056,120.660942 52.991390,132.326187 
	C51.884983,139.656662 52.503326,147.247482 52.347893,154.721497 
z"/>
<path fill="#FFFEFC" opacity="1.000000" stroke="none" 
	d="
M52.796272,154.693024 
	C52.503326,147.247482 51.884983,139.656662 52.991390,132.326187 
	C54.752056,120.660942 65.092995,112.398270 76.849579,111.993988 
	C78.680504,111.931030 80.514885,111.961311 82.347672,111.961296 
	C198.818161,111.960091 315.289490,112.181931 431.758270,111.735336 
	C450.505066,111.663452 463.349701,123.684738 461.918213,142.348877 
	C461.625916,146.160095 461.813477,150.008118 461.715118,154.281235 
	C340.178467,154.708527 218.706558,154.694092 97.234650,154.678635 
	C82.571320,154.676758 67.907990,154.669373 52.796272,154.693024 
z"/>
</svg>