<?xml version="1.0" standalone="no"?>
<!DOCTYPE svg PUBLIC "-//W3C//DTD SVG 20010904//EN"
 "http://www.w3.org/TR/2001/REC-SVG-20010904/DTD/svg10.dtd">
<svg version="1.0" xmlns="http://www.w3.org/2000/svg"
 width="512.000000pt" height="512.000000pt" viewBox="0 0 512.000000 512.000000"
 preserveAspectRatio="xMidYMid meet">

<g transform="translate(0.000000,512.000000) scale(0.100000,-0.100000)"
fill="#000000" stroke="none">
<path d="M960 5109 c-150 -30 -281 -164 -310 -319 -7 -37 -9 -794 -8 -2260 3
-2077 4 -2208 21 -2257 37 -108 148 -217 256 -251 52 -16 160 -17 1641 -17
1470 0 1589 1 1640 17 79 24 161 87 208 158 77 114 72 -21 72 2013 0 1811 0
1815 -21 1883 l-21 69 -466 467 -467 466 -69 21 c-67 21 -79 21 -1250 20 -649
-1 -1201 -5 -1226 -10z m2322 -511 c3 -343 5 -366 25 -415 30 -75 85 -145 145
-186 103 -71 103 -71 506 -75 l362 -3 -2 -1798 -3 -1798 -30 -49 c-19 -30 -49
-60 -79 -79 l-49 -30 -1597 0 -1597 0 -49 30 c-30 19 -60 49 -79 79 l-30 49
-3 2216 c-2 1506 0 2227 7 2252 17 59 64 114 122 143 l53 26 1147 0 1148 0 3
-362z m682 -516 c-209 -1 -330 1 -357 9 -56 15 -141 99 -156 154 -7 25 -11
158 -11 360 l0 320 420 -420 420 -420 -316 -3z"/>
</g>

<g transform="translate(0.000000,512.000000) scale(0.100000,-0.100000)" fill="#000000" stroke="none">
  <polygon points="2200,2700 1900,2400 2200,2100 2300,2200 2100,2400 2300,2600"/>

  <polygon points="2920,2100 3220,2400 2920,2700 2820,2600 3020,2400 2820,2200"/>

  <polygon points="2400,2000 2520,2000 2720,2800 2600,2800"/>
</g>
</svg>
